<?xml version="1.0" encoding="UTF-8"?>
<svg id="Layer_1" xmlns="http://www.w3.org/2000/svg" version="1.1" viewBox="0 0 784.14 304">
  <!-- Generator: Adobe Illustrator 29.4.0, SVG Export Plug-In . SVG Version: 2.1.0 Build 152)  -->
  <defs>
    <style>
      .st0 {
        fill: #041225;
      }

      .st1 {
        fill: #d32248;
      }
    </style>
  </defs>
  <g>
    <path class="st1" d="M0,0v304h150.12c14.29,0,28.16-2.8,41.22-8.32,6.28-2.65,12.33-5.93,17.99-9.75,5.6-3.78,10.88-8.13,15.66-12.91,4.79-4.78,9.14-10.05,12.92-15.65,3.82-5.66,7.11-11.7,9.76-17.97,5.52-13.05,8.32-26.9,8.32-41.18V0H0ZM238.64,198.22c0,39.45-25.99,72.94-61.76,84.31-.49-4.91-1.23-9.79-2.21-14.6-1.9-9.27-4.73-18.38-8.42-27.09-3.62-8.55-8.1-16.8-13.32-24.51-4.42-6.54-9.41-12.75-14.86-18.5-4.83.93-10.2,1.91-15.86,2.53-2.08.23-4.17.36-6.25.41,24.52,21.08,40.92,51.33,43.82,85.36-3.18.35-6.4.53-9.67.53H17.36v-17.58h121.85c-1.58-6-3.66-11.79-6.19-17.34H17.36v-65.75h.05c0-.2,0-.39,0-.59,0-56.44,37.07-104.4,88.17-120.85l.03,37.24c.06-.02,6.31-1.56,14.95-1.06,11.61.67,21.55,4.55,29.52,11.54,5.71,5,10.71,9.7,15.54,14.24,8.2,7.69,15.27,14.34,22.45,19.23,2.66,1.81,5.26,3.33,7.84,4.56v20.29l-7.29,5.4c-.82-1.03-1.42-1.62-1.42-1.62h0c-7.39-8.04-16.07-12.47-26.48-13.54-9.12-.93-18.45.87-27.47,2.61-4.85.94-9.87,1.9-14.84,2.45-9.92,1.09-19.36-1.98-28.06-9.14-4.82-3.96-8.15-8.18-9.77-10.44-3.39,5.5-6.04,11.42-7.9,17.62,1.76,1.87,3.81,3.84,6.12,5.78,5.43,4.55,11.26,8.03,17.35,10.34,7.77,2.95,15.9,3.99,24.16,3.08,5.66-.62,11.03-1.66,16.23-2.66,5.19-1,9.97-1.9,14.42-2.27,1.1-.12,2.22-.18,3.34-.18,4.39,0,8.65.94,12.66,2.79,3.87,1.79,7.34,4.34,10.32,7.6,2.98,3.25,5.31,7.03,6.94,11.24.12.31.24.62.35.94l28.69-21.28v-42.25c-11.07,0-20.89-9.22-35.76-23.18-4.71-4.42-10.05-9.44-15.98-14.64-6.04-5.3-13-9.35-20.66-12.04-5.64-1.98-11.66-3.22-17.92-3.69v-40.79c-2.54.38-5.07.82-7.57,1.34-9.28,1.9-18.4,4.73-27.12,8.41-8.56,3.62-16.81,8.09-24.54,13.3-7.65,5.16-14.83,11.09-21.37,17.61-6.53,6.53-12.46,13.71-17.63,21.35-2.65,3.92-5.11,7.97-7.36,12.13V17.34h221.28v180.88Z"/>
    <path class="st1" d="M108.03,217.03h-55.82v-31.68h0c.02-29.67,14.13-56.1,36.01-72.96v-21c-1.71,1.02-3.39,2.09-5.04,3.2-5.8,3.92-11.26,8.41-16.22,13.37-4.96,4.95-9.46,10.4-13.38,16.2-3.96,5.85-7.36,12.12-10.11,18.61-5.72,13.51-8.62,27.85-8.62,42.63,0,.2,0,.39,0,.59h0v48.37h88.24c-4.41-6.28-9.46-12.09-15.06-17.33Z"/>
    <path class="st1" d="M169.7,83.49c1.11.87,2.2,1.78,3.27,2.71,3.56,3.12,6.89,6.15,9.99,9.03l30.31-52.45h-72.97v17.34h42.91l-13.5,23.37Z"/>
  </g>
  <g>
    <path class="st0" d="M344.11,53.38h44.35c11.13,0,20.88,2.22,29.28,6.64,8.39,4.43,14.88,10.74,19.47,18.92,4.58,8.19,6.88,17.69,6.88,28.5s-2.29,20.32-6.88,28.5c-4.59,8.19-11.07,14.5-19.47,18.92-8.4,4.43-18.16,6.64-29.28,6.64h-44.35V53.38ZM388.46,139.43c9.06,0,16.38-2.88,21.94-8.65,5.56-5.77,8.34-13.54,8.34-23.33,0-6.49-1.26-12.13-3.79-16.92-2.53-4.79-6.08-8.5-10.66-11.12-4.58-2.63-9.86-3.94-15.84-3.94h-19.01v63.96h19.01Z"/>
    <path class="st0" d="M471.8,158.2c-6.33-3.35-11.2-8.01-14.6-13.98-3.4-5.97-5.1-12.92-5.1-20.85s1.7-14.88,5.1-20.85c3.4-5.97,8.27-10.63,14.6-13.98,6.33-3.35,13.73-5.02,22.17-5.02s15.86,1.68,22.25,5.02c6.39,3.35,11.28,8.01,14.68,13.98,3.4,5.97,5.1,12.93,5.1,20.85s-1.7,14.88-5.1,20.85c-3.4,5.97-8.29,10.64-14.68,13.98-6.39,3.35-13.81,5.02-22.25,5.02s-15.84-1.68-22.17-5.02ZM481.14,137.27c3.3,3.61,7.57,5.41,12.83,5.41s9.68-1.8,12.98-5.41c3.29-3.6,4.94-8.24,4.94-13.9s-1.65-10.3-4.94-13.9c-3.3-3.6-7.63-5.41-12.98-5.41s-9.53,1.8-12.83,5.41c-3.3,3.61-4.94,8.24-4.94,13.9s1.65,10.3,4.94,13.9Z"/>
    <path class="st0" d="M564.25,156.04c-4.84-4.69-7.26-12.23-7.26-22.63v-28.89h-12.98v-19.31h12.98v-19l24.11-2.63v21.63h19.01v19.31h-19.01v28.89c0,3.09.77,5.38,2.32,6.87,1.55,1.49,3.66,2.24,6.34,2.24,2.99,0,5.92-.72,8.81-2.16l5.72,18.23c-5.97,2.99-12.72,4.48-20.24,4.48-8.34,0-14.94-2.34-19.78-7.03Z"/>
    <path class="st0" d="M630.56,156.04c-4.84-4.69-7.26-12.23-7.26-22.63v-28.89h-12.98v-19.31h12.98v-19l24.11-2.63v21.63h19.01v19.31h-19.01v28.89c0,3.09.77,5.38,2.32,6.87,1.55,1.49,3.66,2.24,6.34,2.24,2.99,0,5.92-.72,8.81-2.16l5.72,18.23c-5.97,2.99-12.72,4.48-20.24,4.48-8.34,0-14.94-2.34-19.78-7.03Z"/>
    <path class="st0" d="M681.6,85.21h24.26v76.31h-24.26v-76.31Z"/>
    <path class="st0" d="M721.1,85.21h21.17l1.85,9.58c4.94-7.52,11.74-11.28,20.4-11.28,3.5,0,7,.64,10.51,1.93,3.5,1.29,6.54,3.17,9.12,5.64l-10.2,17.77c-2.16-1.34-4.17-2.32-6.03-2.94-1.85-.62-3.81-.93-5.87-.93-5.15,0-9.22,1.65-12.21,4.94-2.99,3.3-4.48,8.14-4.48,14.52v37.08h-24.26v-76.31Z"/>
    <path class="st1" d="M681.6,48.79h24.26v2.16c0,13.39-10.87,24.26-24.26,24.26h0v-26.42h0Z"/>
  </g>
  <g>
    <rect class="st0" x="344.22" y="201.71" width="5.94" height="41.61"/>
    <path class="st0" d="M385.18,228.93c2.57-1.15,4.55-2.8,5.94-4.96,1.39-2.16,2.08-4.75,2.08-7.76s-.69-5.61-2.08-7.79c-1.39-2.18-3.37-3.84-5.94-4.99-2.58-1.15-5.68-1.72-9.33-1.72h-16.22v41.61h5.94v-12.66h10.28c.91,0,1.79-.04,2.64-.11l8.94,12.77h6.48l-9.87-13.93c.39-.14.77-.29,1.13-.45ZM375.68,225.61h-10.1v-18.73h10.1c3.8,0,6.68.81,8.64,2.44,1.96,1.63,2.94,3.92,2.94,6.9s-.98,5.28-2.94,6.93c-1.96,1.65-4.84,2.47-8.64,2.47Z"/>
    <polygon class="st0" points="426.75 224.71 447.61 224.71 447.61 219.66 426.75 219.66 426.75 206.88 450.16 206.88 450.16 201.71 420.81 201.71 420.81 243.32 450.99 243.32 450.99 238.15 426.75 238.15 426.75 224.71"/>
    <polygon class="st0" points="487.98 211.81 481.74 211.81 473.09 223.17 464.45 211.81 458.09 211.81 469.9 227.22 457.5 243.32 463.85 243.32 473.05 231.24 482.15 243.32 488.63 243.32 476.11 227.2 487.98 211.81"/>
    <path class="st0" d="M501.94,217.88c1.62-.91,3.47-1.37,5.53-1.37,1.7,0,3.3.37,4.78,1.1,1.48.73,2.74,1.87,3.77,3.42l4.34-2.79c-1.23-2.22-2.96-3.89-5.2-5.02-2.24-1.13-4.78-1.69-7.63-1.69-3.21,0-6.07.68-8.59,2.05-2.52,1.37-4.49,3.26-5.91,5.68-1.43,2.42-2.14,5.19-2.14,8.32s.71,5.91,2.14,8.32c1.43,2.42,3.4,4.32,5.91,5.71,2.51,1.39,5.38,2.08,8.59,2.08,2.85,0,5.4-.58,7.63-1.75,2.24-1.17,3.97-2.84,5.2-5.02l-4.34-2.73c-1.03,1.55-2.29,2.69-3.77,3.42-1.49.73-3.08,1.1-4.78,1.1-2.06,0-3.9-.45-5.53-1.37-1.62-.91-2.91-2.2-3.86-3.86-.95-1.66-1.43-3.63-1.43-5.89s.48-4.21,1.43-5.86c.95-1.64,2.24-2.92,3.86-3.83Z"/>
    <path class="st0" d="M550.93,213c-1.96-.99-4.23-1.49-6.8-1.49-2.85,0-5.35.58-7.49,1.72-1.48.8-2.68,1.82-3.62,3.06v-17.09h-5.7v44.11h5.7v-16.23c0-2.3.41-4.22,1.22-5.77.81-1.55,1.97-2.71,3.48-3.51,1.5-.79,3.27-1.19,5.29-1.19,2.69,0,4.78.77,6.27,2.32,1.49,1.55,2.23,3.84,2.23,6.9v17.48h5.7v-18.13c0-3.09-.55-5.65-1.66-7.67-1.11-2.02-2.64-3.53-4.6-4.52Z"/>
    <path class="st0" d="M578.24,211.52c-2.49,0-4.88.35-7.16,1.04-2.28.69-4.23,1.69-5.85,3l2.38,4.28c1.23-1.03,2.73-1.85,4.52-2.47,1.78-.61,3.6-.92,5.47-.92,2.81,0,4.92.66,6.33,1.99,1.41,1.33,2.11,3.2,2.11,5.62v1.13h-9.03c-3.13,0-5.61.42-7.46,1.25-1.84.83-3.17,1.94-3.98,3.33-.81,1.39-1.22,2.93-1.22,4.64s.48,3.38,1.43,4.79c.95,1.41,2.31,2.51,4.07,3.3,1.76.79,3.81,1.19,6.15,1.19,2.89,0,5.29-.54,7.19-1.63,1.33-.77,2.38-1.72,3.15-2.87v4.15h5.41v-19.02c0-4.32-1.17-7.53-3.51-9.63-2.34-2.1-5.66-3.15-9.98-3.15ZM582.54,237.85c-1.6.95-3.48,1.43-5.62,1.43s-3.88-.47-5.11-1.4c-1.23-.93-1.84-2.17-1.84-3.72,0-1.35.49-2.5,1.48-3.45.99-.95,2.91-1.43,5.76-1.43h8.79v4.4c-.71,1.82-1.87,3.21-3.47,4.16Z"/>
    <path class="st0" d="M622.92,213c-1.96-.99-4.23-1.49-6.8-1.49-2.85,0-5.35.58-7.49,1.72-1.6.86-2.88,1.97-3.86,3.34v-4.76h-5.47v31.51h5.7v-16.23c0-2.3.41-4.22,1.22-5.77.81-1.55,1.97-2.71,3.48-3.51,1.5-.79,3.27-1.19,5.29-1.19,2.69,0,4.78.77,6.27,2.32,1.49,1.55,2.23,3.84,2.23,6.9v17.48h5.7v-18.13c0-3.09-.55-5.65-1.66-7.67-1.11-2.02-2.64-3.53-4.6-4.52Z"/>
    <path class="st0" d="M663.48,216.64c-1.17-1.5-2.6-2.67-4.28-3.49-2.22-1.09-4.67-1.64-7.37-1.64-3.05,0-5.77.63-8.17,1.9-2.4,1.27-4.3,3.04-5.7,5.32-1.41,2.28-2.11,4.94-2.11,8s.7,5.67,2.11,7.97c1.41,2.3,3.31,4.09,5.7,5.38,2.4,1.29,5.12,1.93,8.17,1.93,2.69,0,5.15-.56,7.37-1.69,1.54-.79,2.87-1.85,3.98-3.19v2.5c0,3.57-.87,6.22-2.61,7.97-1.74,1.74-4.48,2.62-8.2,2.62-2.34,0-4.58-.37-6.71-1.1-2.14-.73-3.94-1.73-5.41-3l-2.73,4.4c1.7,1.51,3.91,2.67,6.62,3.48,2.71.81,5.51,1.22,8.41,1.22,5.35,0,9.41-1.31,12.18-3.92,2.77-2.62,4.16-6.7,4.16-12.25v-27.23h-5.41v4.83ZM661.9,232.09c-.93,1.55-2.21,2.75-3.83,3.63-1.62.87-3.49,1.31-5.58,1.31s-3.97-.44-5.62-1.31c-1.64-.87-2.93-2.08-3.86-3.63-.93-1.55-1.4-3.33-1.4-5.35s.47-3.8,1.4-5.35c.93-1.55,2.22-2.74,3.86-3.6,1.64-.85,3.51-1.28,5.62-1.28s3.96.43,5.58,1.28c1.62.85,2.9,2.05,3.83,3.6.93,1.55,1.4,3.33,1.4,5.35s-.47,3.8-1.4,5.35Z"/>
    <path class="st0" d="M705.23,219.22c-1.33-2.44-3.16-4.33-5.5-5.68-2.34-1.35-5.03-2.02-8.08-2.02s-5.71.68-8.11,2.05c-2.4,1.37-4.28,3.26-5.64,5.68-1.37,2.42-2.05,5.19-2.05,8.32s.7,5.91,2.11,8.32c1.41,2.42,3.39,4.32,5.94,5.71,2.55,1.39,5.51,2.08,8.88,2.08,2.61,0,4.98-.44,7.1-1.31,2.12-.87,3.89-2.14,5.32-3.8l-3.15-3.69c-1.15,1.27-2.49,2.22-4.01,2.85-1.52.63-3.22.95-5.08.95-2.26,0-4.26-.45-6-1.37-1.74-.91-3.1-2.19-4.07-3.83-.72-1.21-1.16-2.55-1.35-4.01h25.56c.04-.28.07-.57.09-.89.02-.32.03-.59.03-.83,0-3.25-.66-6.09-1.99-8.53ZM686.36,217.67c1.54-.89,3.31-1.34,5.29-1.34s3.79.45,5.32,1.34c1.52.89,2.72,2.13,3.59,3.72.66,1.2,1.06,2.53,1.19,3.98h-20.24c.17-1.44.57-2.76,1.22-3.95.87-1.61,2.08-2.85,3.62-3.75Z"/>
  </g>
</svg>